<svg enable-background="new 0 0 129 117.2" viewBox="0 0 129 117.2" xmlns="http://www.w3.org/2000/svg" xmlns:xlink="http://www.w3.org/1999/xlink"><clipPath id="a"><path d="m1 12.2h119.8v90.5h-119.8z"/></clipPath><clipPath id="b"><path d="m1 12.2h119.8v90.5h-119.8z"/></clipPath><path d="m0 0h129v117.2h-129z" fill="#d98d00"/><g fill="#fff"><path d="m10.7 43h-2.9v-4.1h10.3v4.1h-2.9v13.5h-4.5z"/><path d="m19.2 38.9h6.4c4.4 0 5.7 2.8 5.7 5.6 0 2-.7 3.8-2.5 4.5l3 7.5h-4.7l-2.3-6.2h-1.2v6.2h-4.5v-17.6zm4.5 7.8c.3 0 .5.1.8.1 1 0 2-.6 2-2 0-1.3-.9-1.8-2.1-1.8h-.7z"/><path d="m35.2 38.9h7l3.3 17.6h-4.7l-.4-3h-3.4l-.4 3h-4.7zm3.5 3.4-1.1 7.3h2.2z"/><path d="m46.4 38.9h5.7c5.6 0 7 4.7 7 8.6 0 4.5-1.9 9-7.5 9h-5.2zm4.5 13.2h.8c1 0 2.6-.7 2.6-4.7 0-4.3-1.9-4.5-3.4-4.5z"/><path d="m60.5 38.9h8.6v4.1h-4.1v2.5h3.6v4.1h-3.6v2.8h4.1v4.1h-8.6z"/><path d="m77.7 38.9h8.9v4.1h-4.4v2.5h3.9v4.1h-3.9v6.9h-4.5z"/><path d="m90.2 38.9h7l3.3 17.6h-4.7l-.4-3h-3.4l-.4 3h-4.7zm3.5 3.4-1.1 7.3h2.2z"/><path d="m101.3 38.9h4.5v17.6h-4.5z"/><path d="m107.6 38.9h6.4c4.3 0 5.7 2.8 5.7 5.6 0 2-.7 3.8-2.4 4.5l3 7.5h-4.7l-2.3-6.2h-1.2v6.2h-4.5zm4.5 7.8c.3 0 .5.1.8.1 1 0 2-.6 2-2 0-1.3-.9-1.8-2.1-1.8h-.7z"/><path d="m11.2 18.8h6.8l3.2 17h-4.5l-.4-2.9h-3.2l-.4 2.9h-4.7zm3.4 3.3-1.1 7h2.1z"/><path d="m32.2 37.5-1.9-1.7c-.3.1-.5.1-.9.2-.3 0-.6 0-.9 0-4.9 0-6.9-3.9-6.9-8.8 0-4.6 1.8-8.8 6.9-8.8s6.9 4.2 6.9 8.8c0 2.6-.6 5-1.9 6.6l1.5 1.3zm-3.6-6c1.4 0 2.4-1.3 2.4-4.4s-1-4.4-2.4-4.4-2.4 1.3-2.4 4.4.9 4.4 2.4 4.4z"/><path d="m36.9 18.8h4.4v11.4c0 1 .3 1.6 1.3 1.6s1.3-.7 1.3-1.6v-11.4h4.4v11.4c0 4.5-2.6 5.9-5.7 5.9s-5.7-1.4-5.7-5.9z"/><path d="m52.4 18.8h6.8l3.2 17h-4.5l-.4-2.9h-3.2l-.4 2.9h-4.5zm3.4 3.3-1.1 7h2.1z"/><path d="m63.2 18.8h6.2c4.2 0 5.5 2.7 5.5 5.4 0 2-.7 3.6-2.4 4.4l2.9 7.2h-4.4l-2.2-6h-1.1v6h-4.4zm4.4 7.4c.2 0 .5.1.8.1 1 0 1.9-.6 1.9-1.9s-.9-1.8-2-1.8h-.7z"/><path d="m78.7 18.8h6.8l3.2 17h-4.5l-.4-2.9h-3.2l-.4 2.9h-4.5zm3.4 3.3-1.1 7h2.1z"/><path d="m89.6 18.8h6.2l1.6 10.9 1.6-10.9h6.2v17h-4v-13.6h-.1l-2.5 13.6h-2.9l-2.2-13h-.1v13h-4z"/><path d="m109.3 18.8h6.8l3.2 17h-4.5l-.4-2.9h-3.2l-.4 2.9h-4.5zm3.4 3.3-1.1 7h2.1z"/><path d="m8.8 66.3v-7.1h3.6v1.2h-2.2v1.6h1.7v1.2h-1.7v3.1z"/><path d="m13.6 61.4c0-1.8.9-2.4 2.3-2.4s2.3.6 2.3 2.4v2.6c0 1.8-.9 2.4-2.3 2.4s-2.3-.6-2.3-2.4zm1.3 2.7c0 .8.4 1 .9 1s.9-.2.9-1v-2.9c0-.8-.4-1-.9-1s-.9.2-.9 1z"/><path d="m22.9 66.3-1.2-2.9h-.6v2.9h-1.4v-7.1h2c1.6 0 2.4.8 2.4 2.1 0 .9-.3 1.5-1.1 1.8l1.4 3.2zm-1.8-4.1h.7c.6 0 1-.3 1-1s-.4-1-1-1h-.7z"/><path d="m28.5 59.1h1.3l1 4.7 1-4.7h1.3l1 4.7 1-4.7h1.3l-1.6 7.1h-1.3l-1-4.9-1.1 4.9h-1.4z"/><path d="m37 66.3 1.8-7.1h1.8l1.7 7.1h-1.3l-.3-1.5h-1.9l-.4 1.5zm2-2.7h1.4l-.7-2.9z"/><path d="m47.1 59.1v1.2h-1.6v5.9h-1.4v-5.9h-1.6v-1.2z"/><path d="m48.4 66.3v-7.1h3.7v1.2h-2.4v1.6h1.8v1.2h-1.8v1.9h2.5v1.2z"/><path d="m57 66.3-1.2-2.9h-.7v2.9h-1.4v-7.1h2c1.6 0 2.4.8 2.4 2.1 0 .9-.3 1.5-1.1 1.8l1.3 3.2zm-1.8-4.1h.7c.6 0 1-.3 1-1s-.4-1-1-1h-.7z"/><path d="m67.2 59.1v1.2h-1.6v5.9h-1.4v-5.9h-1.6v-1.2z"/><path d="m68.5 66.3v-7.1h3.7v1.2h-2.4v1.6h1.8v1.2h-1.8v1.9h2.5v1.2z"/><path d="m75.2 64.1c0 .8.3 1 .9 1s.9-.2.9-1v-.5h1.4v.4c0 1.8-.9 2.4-2.3 2.4s-2.3-.6-2.3-2.4v-2.6c0-1.8.9-2.4 2.3-2.4s2.3.6 2.3 2.4h-1.4v-.2c0-.8-.3-1-.9-1s-.9.2-.9 1z"/><path d="m80 66.3v-7.1h1.4v2.8h1.9v-2.8h1.4v7.1h-1.4v-3.1h-1.9v3.1z"/><path d="m86.5 66.3v-7.1h1.5l1.9 4.2v-4.2h1.2v7.1h-1.3l-2.1-4.6v4.6z"/><path d="m92.8 61.4c0-1.8.9-2.4 2.3-2.4s2.3.6 2.3 2.4v2.6c0 1.8-.9 2.4-2.3 2.4s-2.3-.6-2.3-2.4zm1.4 2.7c0 .8.3 1 .9 1s.9-.2.9-1v-2.9c0-.8-.3-1-.9-1s-.9.2-.9 1z"/><path d="m98.9 66.3v-7.1h1.4v5.9h2.2v1.2z"/><path d="m103.7 61.4c0-1.8.9-2.4 2.3-2.4s2.3.6 2.3 2.4v2.6c0 1.8-.9 2.4-2.3 2.4s-2.3-.6-2.3-2.4zm1.4 2.7c0 .8.3 1 .9 1s.9-.2.9-1v-2.9c0-.8-.3-1-.9-1s-.9.2-.9 1z"/><path d="m113.2 65.7c-.4.4-.8.7-1.3.7-1.3 0-2.3-.6-2.3-2.4v-2.6c0-1.8.9-2.4 2.3-2.4s2.2.8 2.2 2.4h-1.4c0-.9-.3-1.2-.8-1.2s-.9.2-.9 1v2.9c0 .8.3 1 .9 1 .5 0 .8-.4.8-1v-.4h-1v-1.1h2.3v3.7h-.7z"/><path d="m118.1 62 1.2-2.9h1.5l-1.9 4.3v2.9h-1.4v-2.9l-1.9-4.3h1.5z"/></g><path clip-path="url(#a)" d="m1 8h2" fill="none" stroke="#fff" stroke-miterlimit="10" stroke-width=".142"/><path clip-path="url(#b)" d="m6.7 7.9h.4z" fill="none" stroke="#fff" stroke-miterlimit="10" stroke-width=".045"/><path d="m42.3 88.8c-13 0-25.4-8.1-34-12.2v-4.1c10.6 4.1 17.9 12.2 34 12.2 21.4 0 27.2-14.5 46.2-14.5 13.6 0 20.6 7.3 31.1 11.5l-.8 3.8c-10.1-4.3-17-11.2-30.2-11.2-19.1 0-24.8 14.5-46.3 14.5m0-10.5c-10.7 0-21-5.5-29.1-9.8h8.1c5.7 3 11.9 5.6 21 5.6s15.4-2.6 21-5.6h7.5c-8 4.3-15.2 9.8-28.5 9.8m76.5-3.3c-4.5-1.9-8.3-4.3-12.4-6.4h7.6c1.8.9 3.7 1.8 5.6 2.7zm-76.5 25.2c-13 0-25.4-8.1-34-12.2v-4.1c10.6 4.1 17.9 12.2 34 12.2 21.4 0 27.2-14.5 46.2-14.5 13.6 0 20.6 7.3 31.1 11.5l-.8 3.8c-10.1-4.3-17-11.2-30.2-11.2-19.1 0-24.8 14.5-46.3 14.5" fill="#fff"/></svg>
